<svg id="Capa_1" data-name="Capa 1" xmlns="http://www.w3.org/2000/svg" viewBox="0 0 512 300"><defs><style>.cls-1,.cls-2{fill:#fff;}.cls-2{fill-rule:evenodd;}</style></defs><title>Mesa de trabajo 5</title><path id="_Trazado_" data-name="&lt;Trazado&gt;" class="cls-1" d="M169.26,25a2.7,2.7,0,0,1,2.59-3.6q26.28,0,52.56,0c1.07,0,1.61.24,1.8,1.37.28,1.63.72,3.22,1.11,4.83Q245.6,102.81,263.87,178c1.28,5.28,2.59,10.56,4,16.28.24-1,.39-1.45.49-1.94,3.24-15.82,26.47-128.63,34.78-169.23.3-1.47.88-1.77,2.24-1.77q27.62.06,55.23,0c1.49,0,2,.42,2.32,1.92,3.4,17.28,24.83,123.49,32.07,159.33.75,3.73,1.54,7.46,2.4,11.66.53-2,.93-3.57,1.3-5.09,12-49.2,22.43-88.83,34.44-138,3-12.27,13.34-28.22,39.93-29.52,11.64-.62,9-.12,20.62-.25a2.19,2.19,0,0,1,1.62.76c1.71,1.57.6,3.17.15,4.73q-19.09,67-38.2,134-16.51,57.93-33,115.88c-.44,1.57-1.07,2.08-2.71,2.05-5.48-.11-38.48,0-49.5,0-.72,0-1.41.25-1.65-1-3-15.28-31.74-158.57-36.3-181.19-.31-1.54-.34-3.18-1.29-4.85-6.47,31.58-31.73,154.78-37.88,185.13-.31,1.52-.85,1.91-2.33,1.9q-24.37-.08-48.73,0c-1.49,0-1.77-.69-2.09-1.8C228.65,231.25,169.26,25,169.26,25Z"/><path id="_Trazado_2" data-name="&lt;Trazado&gt;" class="cls-2" d="M180.2,102.35c-.65.37,5.89,13.52-11,29.55-2.17,2.06-5,3.31-7.59,4.75-1,.57-1,.92,0,1.49s39.11,12.87,38.74,51.54c0,3.9.44,7.75.3,11.62-.61,16.83-4.86,32.5-15.23,46.13a73.25,73.25,0,0,1-23.81,20.18c-11.75,6.36-24.38,9.7-37.57,11.24-1.26.15-39.08,3.64-57.25-3.79-17.51-5.12-32.27-14.87-41.5-30.4-7.86-13.23-9.44-34.37-9.54-41.64,0-2.63,0-2.93,2.59-2.93l46.72.06c.53,6.57-.17,13.06,2.94,19a15.66,15.66,0,0,1,.88,3.07c.35.59.76,1.16,1.06,1.77a31.09,31.09,0,0,0,17.59,15.81,54,54,0,0,0,38,.32,31.61,31.61,0,0,0,20.37-21.53c3.15-10.52,3.08-21.09-1.3-31.38a17.94,17.94,0,0,1-.87-1.89,31,31,0,0,0-6.62-11.24c-7.46-8.17-17.35-10.85-27.79-12.26a138,138,0,0,0-18.81-.8c0-.5-.12-1-.13-1.51,0-8.85,0-17.69,0-26.54,0-1.84.65-2.24,2.33-2.21a92.2,92.2,0,0,0,17.69-1.1c7-1.22,13.76-3.3,19.38-7.95,9.43-7.8,13.76-24.95,9.32-36.62-.16-.42-5.24-18.31-18.23-23.22-9-3.6-18.41-3.66-27.77-1.8C80.27,62.65,73,71,69.49,83.19c-1.26,4.39-1.4,8.91-1.68,13.39-.12,2-.86,2.25-2.55,2.23-8.53-.07-32.4,0-32.4,0-5.4-1-14.7-11,5.09-45C62,12.61,131,13.14,159,34.71Z"/></svg>